<svg width="355" height="282" viewBox="0 0 355 282" fill="none" xmlns="http://www.w3.org/2000/svg">
<rect width="355" height="282" fill="#FFF9F2"/>
<path d="M93.3295 115.017C92.1519 115.017 91.2168 114.614 90.5241 113.809C89.8311 112.922 89.4848 111.714 89.4848 110.183V62.9277C89.4848 51.97 92.1173 43.4294 97.3816 37.306C102.715 31.102 110.092 28 119.513 28C128.864 28 136.207 31.102 141.54 37.306C146.874 43.51 149.541 52.0506 149.541 62.9277V110.183C149.541 111.714 149.194 112.922 148.502 113.809C147.809 114.614 146.839 115.017 145.592 115.017C144.415 115.017 143.445 114.614 142.683 113.809C141.99 112.922 141.644 111.714 141.644 110.183V82.99H97.2777V110.183C97.2777 111.714 96.9314 112.922 96.2387 113.809C95.546 114.614 94.5763 115.017 93.3295 115.017ZM141.644 75.4969V62.5651C141.644 53.944 139.739 47.3371 135.929 42.7446C132.12 38.0714 126.648 35.7349 119.513 35.7349C112.309 35.7349 106.802 38.0311 102.992 42.6237C99.1826 47.2163 97.2777 53.8634 97.2777 62.5651V75.4969H141.644ZM168.922 115.017C167.744 115.017 166.809 114.614 166.117 113.809C165.424 112.922 165.078 111.714 165.078 110.183V55.5554C165.078 47.0149 167.156 40.2871 171.312 35.3723C175.468 30.4574 181.182 28 188.456 28C192.681 28 196.56 29.2891 200.093 31.8674C203.695 34.3651 206.396 37.7089 208.197 41.8986C209.998 37.6283 212.63 34.2443 216.094 31.7466C219.626 29.2489 223.575 28 227.939 28C235.212 28 240.926 30.4574 245.082 35.3723C249.239 40.2066 251.317 46.9343 251.317 55.5554V110.183C251.317 111.714 250.936 112.922 250.174 113.809C249.481 114.614 248.546 115.017 247.368 115.017C246.121 115.017 245.152 114.614 244.459 113.809C243.836 112.922 243.524 111.714 243.524 110.183V55.5554C243.524 49.1903 242.277 44.3157 239.783 40.9317C237.359 37.5477 233.341 35.8557 227.731 35.8557C222.813 35.8557 218.968 37.6283 216.198 41.1734C213.427 44.638 212.041 49.432 212.041 55.5554V110.183C212.041 111.714 211.695 112.922 211.002 113.809C210.31 114.614 209.375 115.017 208.197 115.017C207.02 115.017 206.084 114.614 205.392 113.809C204.768 112.922 204.457 111.714 204.457 110.183V55.5554C204.457 49.5931 203.002 44.8394 200.093 41.2943C197.183 37.6686 193.374 35.8557 188.663 35.8557C183.053 35.8557 179 37.5477 176.507 40.9317C174.082 44.3157 172.87 49.1903 172.87 55.5554V110.183C172.87 111.714 172.524 112.922 171.831 113.809C171.139 114.614 170.169 115.017 168.922 115.017Z" fill="black"/>
<path d="M179.915 235.874C178.737 235.874 177.802 235.471 177.109 234.666C176.417 233.779 176.07 232.571 176.07 231.04V183.785C176.07 172.827 178.703 164.287 183.967 158.163C189.301 151.959 196.678 148.857 206.098 148.857C215.449 148.857 222.792 151.959 228.126 158.163C233.459 164.367 236.126 172.908 236.126 183.785V231.04C236.126 232.571 235.78 233.779 235.087 234.666C234.394 235.471 233.425 235.874 232.178 235.874C231 235.874 230.03 235.471 229.268 234.666C228.576 233.779 228.229 232.571 228.229 231.04V203.847H183.863V231.04C183.863 232.571 183.517 233.779 182.824 234.666C182.131 235.471 181.162 235.874 179.915 235.874ZM228.229 196.354V183.422C228.229 174.801 226.325 168.194 222.515 163.602C218.705 158.929 213.233 156.592 206.098 156.592C198.894 156.592 193.388 158.888 189.578 163.481C185.768 168.073 183.863 174.721 183.863 183.422V196.354H228.229Z" fill="black"/>
<path d="M257.842 235.874C256.664 235.874 255.729 235.471 255.036 234.666C254.344 233.779 253.997 232.571 253.997 231.04V176.413C253.997 167.872 256.075 161.144 260.231 156.229C264.388 151.315 270.102 148.857 277.375 148.857C281.601 148.857 285.48 150.146 289.012 152.725C292.614 155.222 295.316 158.566 297.117 162.756C298.918 158.485 301.55 155.101 305.013 152.604C308.546 150.106 312.494 148.857 316.858 148.857C324.131 148.857 329.846 151.315 334.002 156.229C338.158 161.064 340.236 167.791 340.236 176.413V231.04C340.236 232.571 339.855 233.779 339.093 234.666C338.401 235.471 337.466 235.874 336.288 235.874C335.041 235.874 334.071 235.471 333.379 234.666C332.755 233.779 332.444 232.571 332.444 231.04V176.413C332.444 170.047 331.197 165.173 328.703 161.789C326.279 158.405 322.261 156.713 316.65 156.713C311.732 156.713 307.888 158.485 305.117 162.031C302.347 165.495 300.961 170.289 300.961 176.413V231.04C300.961 232.571 300.615 233.779 299.922 234.666C299.229 235.471 298.294 235.874 297.117 235.874C295.939 235.874 295.004 235.471 294.311 234.666C293.688 233.779 293.376 232.571 293.376 231.04V176.413C293.376 170.45 291.922 165.697 289.012 162.151C286.103 158.526 282.293 156.713 277.583 156.713C271.972 156.713 267.92 158.405 265.427 161.789C263.002 165.173 261.79 170.047 261.79 176.413V231.04C261.79 232.571 261.444 233.779 260.751 234.666C260.058 235.471 259.088 235.874 257.842 235.874Z" fill="black"/>
<path d="M350.02 228.087C349.622 236.088 343.776 243.392 333.767 248.393C323.759 253.396 310.409 255.685 296.654 254.758C282.899 253.832 269.865 249.765 260.42 243.453C250.975 237.141 245.893 229.101 246.291 221.102L298.156 224.594L350.02 228.087Z" fill="#F6ECE1"/>
<path d="M32.6155 235.874C31.4379 235.874 30.5028 235.471 29.8101 234.666C29.1175 233.779 28.7711 232.571 28.7711 231.04V181.73C28.7711 175.043 29.9833 169.242 32.4077 164.327C34.9014 159.331 38.434 155.504 43.0058 152.845C47.5775 150.187 52.9458 148.857 59.1106 148.857C65.2755 148.857 70.6092 150.187 75.1116 152.845C79.6833 155.504 83.1814 159.331 85.6058 164.327C88.0994 169.242 89.3462 175.043 89.3462 181.73V231.04C89.3462 232.571 88.9999 233.779 88.3072 234.666C87.6838 235.471 86.7487 235.874 85.5019 235.874C84.3243 235.874 83.3545 235.471 82.5926 234.666C81.8999 233.779 81.5536 232.571 81.5536 231.04V181.368C81.5536 173.552 79.5794 167.469 75.6311 163.118C71.6828 158.767 66.176 156.592 59.1106 156.592C52.1838 156.592 46.677 158.808 42.5901 163.239C38.5726 167.671 36.5638 173.713 36.5638 181.368V231.04C36.5638 232.571 36.2175 233.779 35.5248 234.666C34.8321 235.471 33.8623 235.874 32.6155 235.874Z" fill="black"/>
<path d="M6.23563 169.055C7.60639 160.902 14.5472 155.726 21.489 157.68L257.396 224.089C258.535 224.409 259.495 225.298 260.018 226.517C261.475 229.904 259.009 233.781 255.798 233.152L16.4565 186.234C9.50188 184.872 4.88205 177.106 6.23563 169.055Z" fill="#F6ECE1"/>
<path d="M161.663 148.857C162.84 148.857 163.775 149.3 164.468 150.187C165.161 150.992 165.507 152.161 165.507 153.691V168.799C165.507 175.647 164.399 181.851 162.182 187.411C160.035 192.889 156.952 197.321 152.935 200.705C148.917 204.089 144.311 206.143 139.116 206.869V231.04C139.116 232.571 138.769 233.779 138.077 234.666C137.384 235.471 136.414 235.874 135.168 235.874C133.99 235.874 133.055 235.471 132.362 234.666C131.669 233.779 131.323 232.571 131.323 231.04V206.869C125.92 206.224 121.21 204.25 117.192 200.947C113.244 197.643 110.196 193.252 108.049 187.773C105.902 182.294 104.828 175.969 104.828 168.799V153.691C104.828 152.161 105.174 150.992 105.867 150.187C106.56 149.3 107.495 148.857 108.672 148.857C109.919 148.857 110.889 149.3 111.582 150.187C112.274 150.992 112.621 152.161 112.621 153.691V169.161C112.621 178.669 114.595 186.081 118.543 191.399C122.561 196.717 128.102 199.375 135.168 199.375C142.164 199.375 147.67 196.717 151.688 191.399C155.706 186.001 157.714 178.588 157.714 169.161V153.691C157.714 152.161 158.061 150.992 158.753 150.187C159.515 149.3 160.485 148.857 161.663 148.857Z" fill="black"/>
</svg>
