<svg width="30" height="27" viewBox="0 0 30 27" fill="none" xmlns="http://www.w3.org/2000/svg">
<path d="M15 13.5C16.9891 13.5 18.8968 12.7888 20.3033 11.523C21.7098 10.2571 22.5 8.54021 22.5 6.75C22.5 4.95979 21.7098 3.2429 20.3033 1.97703C18.8968 0.711159 16.9891 0 15 0C13.0109 0 11.1032 0.711159 9.6967 1.97703C8.29018 3.2429 7.5 4.95979 7.5 6.75C7.5 8.54021 8.29018 10.2571 9.6967 11.523C11.1032 12.7888 13.0109 13.5 15 13.5ZM20 6.75C20 7.94347 19.4732 9.08807 18.5355 9.93198C17.5979 10.7759 16.3261 11.25 15 11.25C13.6739 11.25 12.4021 10.7759 11.4645 9.93198C10.5268 9.08807 10 7.94347 10 6.75C10 5.55653 10.5268 4.41193 11.4645 3.56802C12.4021 2.72411 13.6739 2.25 15 2.25C16.3261 2.25 17.5979 2.72411 18.5355 3.56802C19.4732 4.41193 20 5.55653 20 6.75ZM30 24.75C30 27 27.5 27 27.5 27H2.5C2.5 27 0 27 0 24.75C0 22.5 2.5 15.75 15 15.75C27.5 15.75 30 22.5 30 24.75ZM27.5 24.741C27.4975 24.1875 27.115 22.5225 25.42 20.997C23.79 19.53 20.7225 18 15 18C9.2775 18 6.21 19.53 4.58 20.997C2.885 22.5225 2.505 24.1875 2.5 24.741H27.5Z" fill="black"/>
</svg>
