<svg width="24" height="22" viewBox="0 0 24 22" fill="none" xmlns="http://www.w3.org/2000/svg">
<path fill-rule="evenodd" clip-rule="evenodd" d="M24 0.916618C24 0.673516 23.8946 0.440371 23.7071 0.268472C23.5196 0.0965722 23.2653 0 23.0001 0H11.0007C10.7355 0 10.4811 0.0965722 10.2936 0.268472C10.1061 0.440371 10.0007 0.673516 10.0007 0.916618C10.0007 1.15972 10.1061 1.39287 10.2936 1.56477C10.4811 1.73666 10.7355 1.83324 11.0007 1.83324H20.5862L0.293248 20.4333C0.200277 20.5185 0.126528 20.6197 0.0762127 20.731C0.0258971 20.8424 0 20.9617 0 21.0822C0 21.2027 0.0258971 21.3221 0.0762127 21.4334C0.126528 21.5448 0.200277 21.646 0.293248 21.7312C0.386219 21.8164 0.496591 21.884 0.618064 21.9301C0.739536 21.9763 0.86973 22 1.00121 22C1.13269 22 1.26288 21.9763 1.38436 21.9301C1.50583 21.884 1.6162 21.8164 1.70917 21.7312L22.0001 3.12934V11.916C22.0001 12.1591 22.1055 12.3923 22.293 12.5642C22.4805 12.7361 22.7348 12.8327 23.0001 12.8327C23.2653 12.8327 23.5196 12.7361 23.7071 12.5642C23.8946 12.3923 24 12.1591 24 11.916V0.916618Z" fill="#FFF9F2"/>
</svg>
